<?xml version="1.0" encoding="UTF-8" standalone="no"?>
<!-- Created with Inkscape (http://www.inkscape.org/) -->

<svg
   width="20.836372mm"
   height="20.741135mm"
   viewBox="0 0 20.836372 20.741135"
   version="1.1"
   id="svg12"
   xml:space="preserve"
   xmlns:inkscape="http://www.inkscape.org/namespaces/inkscape"
   xmlns:sodipodi="http://sodipodi.sourceforge.net/DTD/sodipodi-0.dtd"
   xmlns="http://www.w3.org/2000/svg"
   xmlns:svg="http://www.w3.org/2000/svg"><sodipodi:namedview
     id="namedview14"
     pagecolor="#ffffff"
     bordercolor="#000000"
     borderopacity="0.25"
     inkscape:showpageshadow="2"
     inkscape:pageopacity="0.0"
     inkscape:pagecheckerboard="0"
     inkscape:deskcolor="#d1d1d1"
     inkscape:document-units="mm"
     showgrid="false" /><defs
     id="defs9" /><g
     inkscape:label="Layer 1"
     inkscape:groupmode="layer"
     id="layer1"
     transform="translate(-121.24378,-63.297651)"><path
       style="fill:#8cc9f0;fill-opacity:1;stroke-width:0.0556173"
       d="m 130.57701,75.726126 c -1.43973,-0.441738 -2.42467,-1.457309 -2.86091,-2.94989 -0.36579,-1.251545 0.0493,-2.760525 1.05636,-3.839839 0.2043,-0.21897 0.84417,-0.675143 1.14913,-0.819224 0.65014,-0.307174 0.9647,-0.374299 1.75407,-0.374299 0.76608,0 1.14633,0.07979 1.77067,0.371549 0.76335,0.35672 1.51629,1.112245 1.90221,1.908758 0.34177,0.705365 0.37678,0.868015 0.37714,1.751943 2.7e-4,0.765371 -0.012,0.868704 -0.14915,1.25139 -0.35259,0.983826 -0.89629,1.682668 -1.71307,2.201873 -0.35637,0.226533 -0.63238,0.348244 -1.13605,0.500948 -0.61383,0.186106 -1.53787,0.184727 -2.1504,-0.0032 z m 1.61923,-1.775963 c 1.93362,-0.462629 2.34254,-3.064335 0.63859,-4.062917 -0.63731,-0.373486 -1.64577,-0.407456 -2.15613,-0.07263 -0.0816,0.05353 -0.17091,0.09733 -0.19847,0.09733 -0.13049,0 -0.68296,0.621633 -0.82155,0.924407 -0.13208,0.288562 -0.15026,0.398864 -0.15468,0.93877 -0.005,0.552035 0.009,0.642845 0.14327,0.929733 0.15518,0.33274 0.19897,0.395846 0.44635,0.643226 0.34181,0.341812 0.60465,0.488545 1.0724,0.598696 0.37968,0.08941 0.66672,0.09035 1.03022,0.0034 z"
       id="path895" /><path
       style="fill:#8cc9f0;fill-opacity:1;stroke-width:0.0556173"
       d="m 136.12282,69.688887 c -0.41926,-0.128862 -0.59798,-0.61102 -0.36695,-0.989962 0.23013,-0.377447 0.78162,-0.436478 1.08821,-0.116477 0.13454,0.140438 0.15778,0.210134 0.15778,0.473199 0,0.28049 -0.0169,0.323276 -0.1863,0.471167 -0.10247,0.08947 -0.2142,0.163005 -0.24829,0.163423 -0.0341,5.29e-4 -0.11205,0.01135 -0.17322,0.02429 -0.0612,0.01294 -0.18323,0.0013 -0.27123,-0.02564 z"
       id="path897" /><path
       style="fill:#8cc9f0;fill-opacity:1;stroke-width:0.0556173"
       d="m 126.37618,83.98514 c -0.0649,-0.02683 -0.1338,-0.111752 -0.15312,-0.18872 -0.0468,-0.186462 0.0602,-0.671298 0.21687,-0.982374 0.13513,-0.26838 0.55826,-0.688731 0.85005,-0.844476 l 0.1775,-0.09474 v -0.650068 c 0,-0.635598 -0.003,-0.65342 -0.15295,-0.800589 -0.58076,-0.571548 -0.60821,-1.405409 -0.0665,-2.020803 l 0.21947,-0.24933 v -0.725186 -0.725186 l -0.40323,-0.118819 c -0.22177,-0.06535 -0.54087,-0.157816 -0.70912,-0.205478 -1.11834,-0.316831 -1.44128,-0.486661 -1.58655,-0.834356 -0.16902,-0.40451 -0.36005,-2.083061 -0.36005,-3.163649 v -1.007475 l -0.43103,-0.03331 c -0.23707,-0.01834 -0.48711,-0.04979 -0.55565,-0.06992 -0.1111,-0.03263 -0.14327,0.0048 -0.29666,0.345168 -0.0946,0.209973 -0.2079,0.48642 -0.25171,0.614328 -0.0761,0.222213 -0.0734,0.241736 0.0603,0.438795 0.26571,0.391557 0.16475,0.897446 -0.22748,1.139865 l -0.18874,0.116647 v 1.385893 c 0,1.084511 0.0154,1.385895 0.0708,1.385895 0.17407,0 0.48263,0.342892 0.57648,0.640646 0.0912,0.289296 0.0909,0.307179 -0.007,0.414822 -0.1826,0.201771 -0.47388,0.114853 -0.47388,-0.141407 0,-0.06623 -0.0519,-0.186362 -0.11527,-0.266962 -0.21375,-0.271729 -0.71899,-0.144052 -0.71899,0.181695 0,0.292859 -0.33224,0.444654 -0.51975,0.237458 -0.11844,-0.130878 -0.11592,-0.222676 0.0144,-0.52683 0.10077,-0.235074 0.41236,-0.539422 0.55226,-0.539422 0.0469,0 0.0643,-0.37497 0.0643,-1.387284 V 73.92268 l -0.15295,-0.09127 c -0.30945,-0.184655 -0.47094,-0.583147 -0.3812,-0.940692 0.0515,-0.205327 0.36224,-0.502965 0.61063,-0.584938 0.19214,-0.06341 0.23323,-0.113353 0.40747,-0.495252 0.10659,-0.233598 0.23033,-0.532077 0.275,-0.663281 0.0796,-0.233842 0.078,-0.242631 -0.0793,-0.44494 -0.0883,-0.113508 -0.20377,-0.363648 -0.25663,-0.55586 -0.0897,-0.326157 -0.09,-0.370695 -0.005,-0.667406 0.11457,-0.400542 0.31906,-0.701974 0.6081,-0.896364 0.31875,-0.21437 0.60861,-0.283633 1.18699,-0.283633 h 0.50369 l 0.0631,-0.191143 c 0.11539,-0.349618 0.33415,-0.496612 1.10208,-0.740518 1.08051,-0.343189 2.44581,-0.681239 2.75135,-0.681239 0.27377,0 0.31903,-0.07929 0.31903,-0.558951 0,-0.384325 0.0161,-0.447706 0.16658,-0.655423 0.15936,-0.220001 0.45875,-0.398526 0.66832,-0.398526 0.0866,0 0.10072,-0.07106 0.11876,-0.598167 0.0229,-0.669552 0.0985,-0.84409 0.46297,-1.069353 0.18247,-0.112776 0.24804,-0.117325 1.45895,-0.101254 1.24068,0.01648 1.27174,0.01971 1.44654,0.150863 0.28178,0.211418 0.37297,0.45928 0.39574,1.075642 0.0176,0.47584 0.0322,0.542269 0.11926,0.542269 0.1498,0 0.4651,0.14459 0.56608,0.259591 0.20159,0.229584 0.26976,0.456467 0.26976,0.897829 v 0.439917 l 0.29199,0.03662 c 0.16059,0.02014 0.37333,0.05151 0.47274,0.06971 l 0.18076,0.03309 v -0.342779 c 0,-0.382294 0.0914,-0.608705 0.30109,-0.746125 0.11328,-0.07422 0.28598,-0.09135 0.90663,-0.08993 0.71195,0.0016 0.77662,0.01058 0.90574,0.125269 0.23219,0.206259 0.27808,0.386644 0.27808,1.09314 v 0.658762 l 0.15295,0.03811 c 0.19262,0.04799 0.57008,0.457985 0.57008,0.619223 0,0.116228 0.0265,0.122303 0.62569,0.143592 0.88891,0.03158 1.22857,0.20657 1.5865,0.817348 0.19836,0.338457 0.20521,0.968301 0.0146,1.341501 -0.0703,0.137652 -0.16211,0.270293 -0.20401,0.294754 -0.11331,0.06615 -0.0929,0.264361 0.0647,0.629914 0.17331,0.401796 0.2179,0.507622 0.2952,0.700601 0.0381,0.09509 0.11825,0.165074 0.21549,0.188135 0.0852,0.02019 0.25752,0.114106 0.38302,0.20869 0.43695,0.329305 0.44237,0.928272 0.0115,1.274498 l -0.21191,0.170293 v 1.381123 c 0,1.084611 0.0153,1.381122 0.0711,1.381122 0.0391,0 0.164,0.09019 0.2775,0.20043 0.23381,0.227105 0.35853,0.581303 0.2819,0.800616 -0.0962,0.275325 -0.51931,0.167402 -0.51931,-0.132464 0,-0.193775 -0.1975,-0.368025 -0.41713,-0.368025 -0.21761,0 -0.41713,0.173805 -0.41713,0.363379 0,0.234895 -0.33123,0.395483 -0.48943,0.237286 -0.10298,-0.102983 -0.0787,-0.441311 0.0464,-0.646498 0.13025,-0.213633 0.38364,-0.450409 0.48476,-0.452964 0.0537,-0.0013 0.0695,-0.314008 0.0695,-1.372926 V 73.95491 l -0.21661,-0.20002 c -0.3649,-0.336957 -0.40664,-0.780013 -0.10975,-1.164936 0.11088,-0.143764 0.12528,-0.08277 -0.19785,-0.837817 -0.0731,-0.170899 -0.14809,-0.357362 -0.16657,-0.414364 -0.025,-0.07695 -0.0657,-0.09422 -0.15806,-0.06708 -0.0684,0.02011 -0.31843,0.05155 -0.5555,0.06988 l -0.43103,0.03331 2.7e-4,0.673365 c 5.2e-4,1.391967 -0.24106,3.296483 -0.46005,3.626093 -0.13302,0.200229 -0.42215,0.412115 -0.56234,0.412115 -0.0537,0 -0.14673,0.02633 -0.20685,0.0585 -0.0601,0.03217 -0.34003,0.122618 -0.62204,0.200988 -0.282,0.07837 -0.6629,0.184779 -0.84644,0.236468 l -0.3337,0.09398 -0.0155,0.77165 -0.0155,0.771649 0.19039,0.198678 c 0.57064,0.595461 0.56037,1.361461 -0.0266,1.981078 -0.15878,0.16763 -0.16055,0.176914 -0.16055,0.841415 v 0.671917 l 0.17453,0.07229 c 0.25766,0.106725 0.72904,0.596289 0.88053,0.914501 0.0774,0.162475 0.1424,0.419542 0.15646,0.618331 0.0381,0.538909 0.10361,0.521822 -1.99992,0.521822 -1.81278,0 -2.01161,-0.02135 -2.06396,-0.221568 -0.0388,-0.148407 0.0672,-0.736507 0.15777,-0.874916 0.0443,-0.06775 0.0806,-0.150894 0.0806,-0.184769 0,-0.103029 0.50415,-0.601271 0.76029,-0.75138 l 0.24082,-0.141128 v -0.660117 -0.66012 l -0.16685,-0.140396 c -0.0918,-0.07722 -0.16685,-0.15554 -0.16685,-0.174048 0,-0.01849 -0.0563,-0.109828 -0.12514,-0.202935 -0.10777,-0.145786 -0.1248,-0.236339 -0.12269,-0.652383 0.002,-0.44708 0.0153,-0.501677 0.17428,-0.732245 0.0945,-0.137031 0.2248,-0.29682 0.28954,-0.355095 0.10612,-0.09552 0.11771,-0.165343 0.11771,-0.70912 0,-0.331743 -0.0188,-0.602732 -0.0417,-0.602197 -0.0229,5.29e-4 -0.26696,0.0383 -0.54227,0.08393 -0.69895,0.115843 -3.36111,0.115843 -4.06006,0 -0.27531,-0.04563 -0.51932,-0.08339 -0.54227,-0.08393 -0.0229,-5.29e-4 -0.0417,0.279643 -0.0417,0.622617 v 0.623589 l 0.21537,0.224573 c 0.51475,0.536768 0.51436,1.249442 -0.001,1.875263 l -0.21434,0.260255 v 0.664586 0.664585 l 0.18076,0.07412 c 0.30544,0.125241 0.73022,0.605166 0.88687,1.001977 0.20107,0.50935 0.22731,0.740987 0.10156,0.896371 l -0.10252,0.126675 -1.82643,0.01151 c -1.00454,0.0063 -1.87954,-0.01045 -1.94444,-0.03728 z m 3.31599,-0.630741 c 0,-0.172971 -0.28103,-0.605406 -0.49027,-0.754395 -0.59547,-0.424014 -1.50208,-0.375833 -1.99489,0.106016 -0.17705,0.173108 -0.40694,0.578651 -0.40694,0.717867 0,0.03964 0.46896,0.05867 1.44605,0.05867 h 1.44605 z m 6.84071,0.003 c -5.3e-4,-0.316389 -0.41033,-0.778685 -0.8292,-0.935403 -0.79831,-0.298688 -1.65773,0.01381 -1.9568,0.711515 -0.0582,0.135858 -0.10589,0.269968 -0.10589,0.298021 0,0.02962 0.60624,0.05101 1.44605,0.05101 h 1.44605 l -2.2e-4,-0.12514 z m -7.96146,-3.192267 c 0.11169,-0.05039 0.27189,-0.166402 0.35601,-0.257815 0.1317,-0.143116 0.15295,-0.212977 0.15295,-0.502838 0,-0.409972 -0.14724,-0.662107 -0.45997,-0.787678 -0.26492,-0.106378 -0.47386,-0.106635 -0.72692,-7.94e-4 -0.64713,0.270389 -0.63478,1.27141 0.0189,1.534062 0.31532,0.126693 0.4071,0.128805 0.659,0.01516 z m 6.87713,-0.01299 c 0.29037,-0.133337 0.399,-0.262144 0.46362,-0.549719 0.13169,-0.58614 -0.25748,-1.07628 -0.84733,-1.067142 -0.61998,0.0096 -1.02698,0.769813 -0.68647,1.282205 0.13088,0.196943 0.5386,0.440145 0.73436,0.438037 0.0623,-7.94e-4 0.21346,-0.04719 0.33582,-0.103381 z m -2.14126,-3.624231 c 1.19533,-0.102076 3.25568,-0.518141 3.94882,-0.797422 0.10707,-0.04314 0.29969,-0.106662 0.42805,-0.141161 0.30852,-0.08292 0.44629,-0.268919 0.48945,-0.660804 0.0192,-0.174311 0.0767,-0.592236 0.12783,-0.92872 0.13695,-0.901612 0.13271,-3.559071 -0.007,-4.588422 -0.11866,-0.872358 -0.19151,-1.199788 -0.28399,-1.276541 -0.0365,-0.03029 -0.30243,-0.13154 -0.59095,-0.224996 -0.28853,-0.09346 -0.63722,-0.206925 -0.77487,-0.252151 -0.13765,-0.04523 -0.29645,-0.08211 -0.35288,-0.08196 -0.0564,1.51e-4 -0.26917,-0.04696 -0.47275,-0.104698 -1.90419,-0.540033 -4.94535,-0.63277 -7.21106,-0.219895 -0.77794,0.141763 -1.8892,0.408249 -2.39154,0.573508 -0.21413,0.07044 -0.46752,0.144724 -0.5631,0.165071 -0.2264,0.0482 -0.3912,0.233066 -0.42447,0.476165 -0.0147,0.107064 -0.067,0.444939 -0.11628,0.750832 -0.25344,1.572641 -0.21435,4.000682 0.0926,5.755338 0.0817,0.466897 0.15522,0.541324 0.68531,0.693613 0.14865,0.0427 0.44546,0.129643 0.65959,0.193196 0.92617,0.274892 2.46114,0.575046 3.39265,0.663414 0.74173,0.07036 2.57097,0.07342 3.36484,0.0056 z m 4.06006,-9.786157 v -0.556172 h -0.6396 -0.6396 v 0.380513 0.380516 l 0.34761,0.09517 c 0.19118,0.05234 0.44772,0.128376 0.57008,0.168966 0.37441,0.124206 0.36151,0.140948 0.36151,-0.468988 z m -4.28253,-2.166905 c 0,-0.741619 0.0299,-0.725191 -1.31945,-0.725191 -1.3882,0 -1.35018,-0.01976 -1.35018,0.701611 v 0.521967 h 1.33482 1.33481 z"
       id="path899" /><path
       style="fill:#000000;fill-opacity:1;stroke-width:0.0393274"
       d="m 131.32597,72.786932 c -0.32553,-0.116353 -0.66478,-0.537935 -0.66478,-0.826103 0,-0.05414 -0.0178,-0.1094 -0.0394,-0.122806 -0.0264,-0.0163 -0.0264,-0.0488 0,-0.09805 0.0217,-0.04053 0.0394,-0.112112 0.0394,-0.159084 0,-0.0792 0.008,-0.07654 0.1141,0.03674 0.096,0.102756 0.14311,0.122142 0.2969,0.122142 0.34915,0 0.49353,-0.151243 0.49353,-0.516993 0,-0.170034 -0.017,-0.214556 -0.11799,-0.308882 -0.0649,-0.06062 -0.11798,-0.118528 -0.11798,-0.128694 0,-0.01016 0.0862,-0.02992 0.19154,-0.04389 0.30253,-0.04013 0.54302,0.033 0.81131,0.246689 0.2781,0.221517 0.38756,0.460354 0.384,0.837941 -0.004,0.412557 -0.29285,0.824397 -0.67399,0.960585 -0.18249,0.06521 -0.53479,0.0654 -0.71664,5.3e-4 z"
       id="path972" /></g></svg>
